<svg xmlns="http://www.w3.org/2000/svg" viewBox="0 0 24 24"><path fill="currentColor" d="m12 12.708l3.246 3.246q.14.14.344.15q.204.01.364-.15t.16-.354q0-.194-.16-.354L12.708 12l3.246-3.246q.14-.14.15-.344q.01-.204-.15-.364t-.354-.16q-.194 0-.354.16L12 11.292L8.754 8.046q-.14-.14-.344-.15q-.204-.01-.364.15t-.16.354q0 .194.16.354L11.292 12l-3.246 3.246q-.14.14-.15.344q-.01.204.15.364t.354.16q.194 0 .354-.16zM12.003 21q-1.866 0-3.51-.708q-1.643-.709-2.859-1.924q-1.216-1.214-1.925-2.856Q3 13.87 3 12.003q0-1.866.708-3.51q.709-1.643 1.924-2.859q1.214-1.216 2.856-1.925Q10.13 3 11.997 3q1.866 0 3.51.708q1.643.709 2.859 1.924q1.216 1.214 1.925 2.856Q21 10.13 21 11.997q0 1.866-.708 3.51q-.709 1.643-1.924 2.859q-1.214 1.216-2.856 1.925Q13.87 21 12.003 21M12 20q3.35 0 5.675-2.325T20 12q0-3.35-2.325-5.675T12 4Q8.65 4 6.325 6.325T4 12q0 3.35 2.325 5.675T12 20m0-8"/></svg>