<svg xmlns="http://www.w3.org/2000/svg" viewBox="0 0 24 24"><path fill="currentColor" d="M14.938 16.95q-.578.025-1.085.038q-.507.012-.908.012h-.866q-1.499 0-2.808-.05q-1.133-.03-2.218-.099q-1.086-.068-1.58-.196q-.557-.148-.965-.552q-.408-.403-.552-.961q-.123-.494-.192-1.184q-.068-.69-.099-1.345q-.05-.746-.05-1.536t.05-1.537q.031-.653.1-1.344q.068-.69.195-1.184q.149-.558.552-.966t.962-.551q.493-.124 1.579-.192q1.085-.068 2.218-.1q1.308-.05 2.806-.05t2.806.05q1.132.032 2.218.1t1.58.196q.557.148.965.551q.408.404.552.962q.123.494.191 1.184t.1 1.344q.05.754.05 1.529v.356q-.399-.18-.821-.264t-.866-.084q-1.754 0-2.995 1.238q-1.242 1.239-1.242 2.996q0 .445.081.853t.242.786m-4.553-3.335l4.392-2.538l-4.392-2.539zM18 17.846v-1.692h-1.692v-1.692H18v-1.693h1.692v1.693h1.693v1.692h-1.693v1.692z"/></svg>