<svg xmlns="http://www.w3.org/2000/svg" viewBox="0 0 24 24"><path fill="currentColor" d="m7.012 16.558l1.969-3.423q-.173.096-.404.134q-.23.039-.462.039q-1.4 0-2.353-.972q-.954-.972-.954-2.336q0-1.4.954-2.354q.953-.954 2.353-.954q1.365 0 2.336.954q.972.954.972 2.347q0 .486-.118.906q-.118.42-.336.793l-3.098 5.366q-.062.112-.175.181t-.25.069q-.288 0-.432-.25q-.143-.25-.002-.5m8.769 0l1.969-3.423q-.173.096-.404.134q-.23.039-.461.039q-1.4 0-2.354-.972q-.954-.972-.954-2.336q0-1.42.954-2.363q.954-.945 2.354-.945q1.364 0 2.336.954q.971.954.971 2.347q0 .486-.118.906q-.118.42-.336.793l-3.098 5.366q-.062.112-.175.181t-.25.069q-.288 0-.431-.25q-.144-.25-.003-.5m-7.666-4.366q.914 0 1.553-.64q.64-.639.64-1.552t-.64-1.553q-.64-.64-1.553-.64q-.913 0-1.553.64q-.639.64-.639 1.553t.64 1.553q.639.64 1.552.64m8.77 0q.913 0 1.552-.64q.64-.64.64-1.553t-.64-1.553q-.639-.64-1.552-.64q-.914 0-1.553.64q-.64.64-.64 1.553t.64 1.553q.64.64 1.553.64M8.115 10"/></svg>