<svg xmlns="http://www.w3.org/2000/svg" width="32" height="32" viewBox="0 0 48 48"><!-- Icon from IconPark Outline by ByteDance - https://github.com/bytedance/IconPark/blob/master/LICENSE --><g fill="none" stroke="currentColor" stroke-width="4"><path stroke-linecap="round" stroke-linejoin="round" d="M28.367 36H24l-9-4.96l-10.991 4.042l3.002 5.944l7.072-2.953Q24.008 44 26.165 44T44 36"/><path stroke-linejoin="round" d="M28.992 26.988v-4.67c1.1-.457 2.543-1.125 3.372-1.954a9 9 0 1 0-12.728 0c.829.829 2.264 1.497 3.364 1.953q.009.503 0 4.67z" clip-rule="evenodd"/><path stroke-linecap="round" d="m12 21l1-1m27 1l-1-1M15 5l-1-1m23 1l1-1m3 8h-1m-28 0h-1"/></g></svg>