<?xml version="1.0" standalone="no"?>
<svg version="1.0" xmlns="http://www.w3.org/2000/svg" viewBox="0 0 512.000000 512.000000"
    preserveAspectRatio="xMidYMid meet">

    <g transform="translate(0.000000,512.000000) scale(0.100000,-0.100000)" stroke="currentColor">
        <path fill="currentColor" d="M383 5105 c-182 -49 -320 -189 -368 -372 -23 -86 -23 -4260 0 -4346
48 -185 187 -324 372 -372 86 -23 4260 -23 4346 0 185 48 324 187 372 372 23
86 23 4260 0 4346 -48 185 -187 324 -372 372 -84 22 -4269 21 -4350 0z m4358
-211 c60 -28 125 -93 153 -153 l21 -46 0 -2135 0 -2135 -21 -46 c-28 -60 -93
-125 -153 -153 l-46 -21 -2135 0 -2135 0 -46 21 c-60 28 -125 93 -153 153
l-21 46 -3 2105 c-2 1510 0 2120 8 2157 21 98 96 181 195 215 47 16 180 17
2170 15 l2120 -2 46 -21z" />
        <path fill="currentColor" d="M1325 4681 c-64 -27 -81 -110 -32 -158 l27 -28 1035 -3 1034 -2 33
29 c27 24 33 36 33 71 0 35 -6 47 -33 71 l-32 29 -1023 -1 c-562 0 -1031 -4
-1042 -8z" />
        <path fill="currentColor" d="M3724 4680 c-32 -13 -64 -59 -64 -91 0 -40 46 -88 91 -95 31 -5 42
-1 70 24 28 25 34 37 34 72 0 35 -6 47 -33 71 -33 29 -60 35 -98 19z" />
        <path fill="currentColor" d="M2430 4054 c-130 -15 -207 -28 -290 -49 -596 -150 -1076 -630 -1225
-1225 -39 -155 -49 -246 -49 -425 0 -177 9 -254 50 -415 149 -597 626 -1075
1220 -1224 158 -39 248 -50 424 -50 176 0 266 11 424 50 472 118 875 446 1101
894 67 132 128 327 156 500 17 98 17 393 0 495 -60 376 -219 692 -482 954
-258 258 -567 417 -929 477 -86 15 -336 26 -400 18z m288 -205 c704 -76 1255
-627 1331 -1331 34 -307 -28 -607 -180 -883 -147 -267 -396 -501 -671 -629
-51 -24 -103 -47 -115 -50 l-21 -7 -4 268 c-4 248 -5 272 -26 323 -12 30 -22
58 -22 61 0 3 26 13 58 23 146 45 303 145 401 253 68 76 151 229 177 328 22
85 30 280 14 369 -17 95 -57 205 -105 291 l-39 70 -1 175 c0 161 -2 179 -23
225 -29 63 -65 101 -109 116 -75 24 -226 -18 -377 -107 l-79 -46 -101 18
c-139 26 -393 26 -532 0 l-101 -18 -79 46 c-151 89 -302 131 -377 107 -44 -15
-80 -53 -109 -116 -21 -46 -23 -64 -23 -225 l-1 -175 -39 -70 c-87 -154 -121
-300 -112 -481 7 -147 23 -212 87 -339 81 -163 197 -276 376 -364 43 -21 104
-47 134 -56 30 -10 57 -19 58 -21 2 -1 -5 -31 -16 -66 -12 -35 -23 -75 -26
-89 -7 -31 -28 -39 -106 -39 -81 0 -122 28 -202 135 -105 142 -205 205 -324
205 -66 0 -99 -19 -114 -65 -23 -69 16 -120 102 -131 62 -8 100 -34 155 -104
97 -124 144 -169 211 -202 62 -31 73 -33 169 -33 l103 0 0 -133 0 -133 -22 6
c-57 17 -218 100 -307 158 -118 78 -276 227 -365 345 -455 605 -394 1441 145
1969 325 319 760 471 1207 422z m-787 -634 c25 -12 81 -43 125 -68 43 -25 91
-49 106 -52 16 -4 69 3 130 16 148 34 388 34 536 0 61 -13 114 -20 130 -16 15
3 74 33 131 66 58 33 130 68 160 79 l56 19 8 -22 c12 -31 10 -205 -3 -247 -17
-60 -12 -95 23 -146 100 -150 137 -261 137 -413 0 -182 -56 -326 -170 -440
-107 -107 -217 -163 -407 -206 -86 -19 -112 -29 -130 -50 -36 -41 -31 -91 16
-156 74 -104 75 -108 78 -284 2 -88 4 -215 6 -282 l2 -121 -80 -14 c-103 -17
-347 -17 -450 0 l-80 14 2 121 c2 67 4 194 6 282 3 176 4 180 78 284 47 65 52
115 17 156 -18 20 -45 31 -130 50 -189 42 -301 99 -408 206 -114 114 -170 258
-170 440 0 152 37 263 137 413 35 51 40 82 23 151 -11 46 -14 200 -5 238 6 23
9 24 43 15 20 -5 58 -20 83 -33z" />
    </g>
</svg>