<svg xmlns="http://www.w3.org/2000/svg" viewBox="0 0 24 24"><path fill="currentColor" d="M4.5 16.5q-.213 0-.357-.144Q4 16.213 4 16V8q0-.213.144-.356q.144-.144.357-.144q.212 0 .356.144Q5 7.788 5 8v3.5h5V8q0-.213.144-.356q.144-.144.357-.144q.212 0 .356.144Q11 7.788 11 8v8q0 .213-.144.356t-.357.144q-.212 0-.356-.144Q10 16.213 10 16v-3.5H5V16q0 .213-.144.356t-.357.144m10.116 0q-.666 0-1.14-.475q-.475-.474-.475-1.14v-5.77q0-.666.475-1.14q.474-.475 1.14-.475H19.5q.213 0 .356.144Q20 7.788 20 8t-.144.356q-.143.143-.356.143h-4.885q-.269 0-.442.173T14 9.115V11.5h4.385q.666 0 1.14.475q.475.474.475 1.14v1.77q0 .666-.475 1.14q-.474.475-1.14.475zm-.615-4v2.385q0 .269.173.442t.442.173h3.77q.269 0 .442-.173t.173-.442v-1.77q0-.269-.173-.442t-.442-.173z"/></svg>