<svg xmlns="http://www.w3.org/2000/svg" viewBox="0 0 24 24"><path fill="currentColor" d="M5.23 20q-.666 0-1.14-.475q-.475-.474-.475-1.14V5.615q0-.666.475-1.14Q4.564 4 5.23 4h7.885q.213 0 .357.144q.143.144.143.357q0 .212-.143.356q-.144.143-.357.143H5.231q-.27 0-.443.173t-.173.442v12.77q0 .269.173.442q.174.173.443.173H18q.27 0 .442-.173t.173-.442V10.5q0-.213.144-.356t.357-.144q.213 0 .356.144t.143.356v7.885q0 .666-.474 1.14Q18.666 20 18 20zM17.386 6.23h-1.5q-.213 0-.357-.143t-.143-.357q0-.213.143-.356q.144-.143.357-.143h1.5v-1.5q0-.213.144-.356q.143-.144.356-.144t.356.144q.144.143.144.356v1.5h1.5q.212 0 .356.144t.144.356q0 .213-.144.356q-.144.144-.356.144h-1.5v1.5q0 .212-.144.356t-.357.144q-.213 0-.356-.144t-.143-.356zm-6.558 9.808L9.4 14.313q-.13-.142-.313-.142t-.314.162l-1.154 1.52q-.161.212-.045.43q.116.217.35.217h7.538q.232 0 .349-.217q.116-.218-.026-.43l-2.02-2.713q-.13-.161-.323-.161q-.192 0-.324.166zM11.615 12"/></svg>