<svg xmlns="http://www.w3.org/2000/svg" viewBox="0 0 24 24"><path fill="currentColor" d="M4.115 16.5q-.213 0-.356-.144q-.144-.144-.144-.356V8q0-.213.144-.356t.357-.144q.213 0 .356.144q.143.143.143.356v3.5h5V8q0-.213.144-.356t.357-.144q.213 0 .356.144q.143.143.143.356v8q0 .213-.144.356q-.143.144-.356.144t-.356-.144q-.144-.144-.144-.356v-3.5h-5V16q0 .213-.144.356q-.144.144-.356.144m14 0q-.213 0-.356-.144T17.615 16v-2.5h-4.192q-.343 0-.575-.232q-.233-.232-.233-.576V8q0-.213.144-.356t.357-.144q.213 0 .356.144q.143.143.143.356v4.5h4V8q0-.213.144-.356t.357-.144q.213 0 .356.144q.143.143.143.356v4.5h1.5q.213 0 .357.144q.143.144.143.357t-.143.356q-.144.143-.357.143h-1.5V16q0 .213-.144.356t-.356.144"/></svg>