<svg xmlns="http://www.w3.org/2000/svg" viewBox="0 0 24 24"><path fill="currentColor" d="M4.5 16.5q-.213 0-.357-.144Q4 16.213 4 16V8q0-.213.144-.356q.144-.144.357-.144q.212 0 .356.144Q5 7.788 5 8v3.5h5V8q0-.213.144-.356q.144-.144.357-.144q.212 0 .356.144Q11 7.788 11 8v8q0 .213-.144.356t-.357.144q-.212 0-.356-.144Q10 16.213 10 16v-3.5H5V16q0 .213-.144.356t-.357.144m9.309 0q-.344 0-.576-.232q-.232-.232-.232-.576v-2.577q0-.666.475-1.14q.474-.475 1.14-.475h3.77q.269 0 .442-.173t.173-.442v-1.77q0-.269-.173-.442t-.442-.173H13.5q-.213 0-.356-.144Q13 8.212 13 7.999t.144-.356q.144-.143.356-.143h4.885q.666 0 1.14.475q.475.474.475 1.14v1.77q0 .666-.475 1.14q-.474.475-1.14.475h-3.77q-.269 0-.442.173t-.173.442V15.5h5.5q.213 0 .356.144q.144.144.144.357t-.144.356q-.143.143-.356.143z"/></svg>