<svg fill="currentColor" viewBox="0 0 24 24" focusable="false" role="img" xmlns="http://www.w3.org/2000/svg">
    <rect width="24" height="24" fill="none"></rect>
    <path d="M17 19.22H5V7h7V5H5c-1.1 0-2 .9-2 2v12c0 1.1.9 2 2 2h12c1.1 0 2-.9 2-2v-7h-2v7.22z"></path>
    <path d="M19 2h-2v3h-3c.01.01 0 2 0 2h3v2.99c.01.01 2 0 2 0V7h3V5h-3V2z"></path>
    <rect width="8" height="2" x="7" y="9"></rect>
    <polygon points="7,12 7,14 15,14 15,12 12,12"></polygon>
    <rect width="8" height="2" x="7" y="15"></rect>
</svg>