<?xml version="1.0" standalone="no"?>
<svg version="1.0" xmlns="http://www.w3.org/2000/svg" viewBox="0 0 512.000000 512.000000"
    preserveAspectRatio="xMidYMid meet">

    <g transform="translate(0.000000,512.000000) scale(0.100000,-0.100000)" stroke="currentColor">
        <path fill="currentColor" d="M520 5104 c-36 -7 -107 -34 -158 -59 -130 -65 -223 -157 -287 -287
-80 -164 -75 2 -75 -2198 0 -2200 -5 -2034 75 -2198 64 -130 157 -223 287
-287 164 -80 -2 -75 2198 -75 2200 0 2034 -5 2198 75 130 64 223 157 287 287
80 164 75 -2 75 2198 0 2200 5 2034 -75 2198 -64 130 -157 223 -287 287 -164
80 3 75 -2203 74 -1644 0 -1981 -3 -2035 -15z m4021 -194 c181 -34 334 -187
369 -369 14 -74 14 -3888 0 -3962 -35 -182 -188 -335 -369 -369 -75 -14 -3889
-14 -3962 0 -182 35 -335 188 -369 369 -14 74 -14 3888 0 3962 16 85 72 188
135 248 58 55 154 106 226 120 64 13 3903 13 3970 1z" />
        <path fill="currentColor" d="M2575 4629 c-98 -57 -50 -205 59 -185 108 20 104 176 -5 192 -18 2
-43 -1 -54 -7z" />
        <path fill="currentColor" d="M3035 4631 c-64 -27 -81 -110 -32 -158 l27 -28 438 -3 c336 -1 443 1
462 11 14 6 33 29 43 50 18 36 18 38 0 74 -10 21 -29 43 -43 50 -29 15 -860
18 -895 4z" />
        <path fill="currentColor" d="M1163 4315 c-163 -44 -315 -198 -358 -362 -82 -316 163 -633 490
-633 137 0 254 50 355 150 199 200 202 505 5 705 -104 105 -223 156 -366 154
-41 0 -97 -7 -126 -14z m242 -206 c74 -28 146 -100 174 -174 93 -248 -146
-487 -394 -394 -74 28 -146 100 -174 174 -93 248 146 487 394 394z" />
        <path fill="currentColor" d="M3350 3246 c-152 -30 -284 -91 -386 -177 l-59 -50 -5 71 c-4 63 -8
75 -33 96 l-28 24 -400 0 -401 0 -29 -29 -29 -29 0 -1152 0 -1152 29 -29 29
-29 391 0 c270 0 398 3 415 11 57 26 56 18 56 743 0 644 1 667 20 720 27 71
88 139 155 171 109 54 246 30 315 -53 61 -74 60 -59 60 -813 0 -404 4 -698 9
-712 6 -14 20 -35 32 -46 22 -21 31 -21 402 -21 l379 0 29 30 30 29 -4 843
c-3 816 -4 846 -24 933 -80 342 -242 526 -538 612 -69 20 -331 26 -415 9z
m363 -205 c215 -55 329 -186 394 -450 14 -57 17 -167 20 -833 l4 -768 -241 0
-240 0 0 638 c0 701 0 697 -62 814 -107 202 -377 279 -602 173 -82 -39 -176
-130 -219 -213 -68 -129 -67 -119 -67 -799 l0 -613 -260 0 -260 0 0 1010 0
1010 260 0 260 0 0 -130 c0 -142 10 -185 51 -214 53 -36 100 -15 179 82 151
184 274 266 451 301 84 17 250 12 332 -8z" />
        <path fill="currentColor" d="M867 3186 c-14 -13 -28 -39 -32 -57 -3 -19 -5 -226 -3 -461 l3 -426
24 -26 c30 -31 73 -42 112 -26 58 24 59 33 59 445 l0 375 265 0 265 0 0 -1010
0 -1010 -265 0 -265 0 0 230 c0 255 -4 277 -59 300 -39 16 -82 5 -112 -26 -24
-26 -24 -26 -27 -307 -2 -155 0 -297 3 -316 4 -18 18 -44 32 -57 l26 -24 402
0 c394 0 402 0 424 21 12 11 26 32 32 46 13 36 12 2251 -2 2291 -22 63 -18 62
-457 62 l-399 0 -26 -24z" />
        <path fill="currentColor" d="M895 1921 c-89 -37 -74 -169 21 -187 56 -10 114 39 114 96 0 67 -73
116 -135 91z" />
    </g>
</svg>