<svg xmlns="http://www.w3.org/2000/svg" viewBox="0 0 24 24"><path fill="currentColor" d="M10.115 18.5q-.212 0-.356-.144T9.615 18t.144-.356q.144-.143.356-.143H19.5q.213 0 .356.144q.144.144.144.357t-.144.356q-.143.143-.356.143zm0-6q-.212 0-.356-.144T9.615 12t.144-.356q.144-.143.356-.143H19.5q.213 0 .356.144q.144.144.144.357t-.144.356q-.143.143-.356.143zm0-6q-.212 0-.356-.144t-.144-.357t.144-.356q.144-.143.356-.143H19.5q.213 0 .356.144q.144.144.144.357t-.144.356q-.143.143-.356.143zM5.327 19.327q-.547 0-.937-.39T4 18t.39-.937q.39-.39.937-.39t.937.39q.39.39.39.937t-.39.937q-.39.39-.937.39m0-6q-.547 0-.937-.39T4 12t.39-.937q.39-.39.937-.39t.937.39q.39.39.39.937t-.39.937q-.39.39-.937.39m0-6q-.547 0-.937-.39T4 6t.39-.937q.39-.39.937-.39t.937.39q.39.39.39.937t-.39.937q-.39.39-.937.39"/></svg>