<svg xmlns="http://www.w3.org/2000/svg" viewBox="0 0 24 24"><path fill="currentColor" d="m8.113 12l1.822-1.821q.146-.146.155-.344q.01-.198-.155-.364q-.166-.165-.357-.165t-.357.165l-1.963 1.964q-.131.13-.184.267q-.053.136-.053.298t.053.298q.053.137.184.267l1.982 1.983q.147.146.348.156q.2.01.366-.156q.165-.165.165-.354q0-.188-.165-.354zm7.774 0l-1.84 1.84q-.147.147-.157.345q-.01.198.156.363q.166.165.357.165t.357-.165l1.982-1.983q.131-.13.184-.267q.053-.136.053-.298t-.053-.298q-.053-.137-.184-.267L14.76 9.452q-.073-.073-.165-.11q-.091-.036-.183-.036t-.192.036q-.1.037-.174.11q-.165.165-.165.354q0 .188.165.354zM5.615 20q-.69 0-1.152-.462Q4 19.075 4 18.385V5.615q0-.69.463-1.152Q4.925 4 5.615 4h12.77q.69 0 1.152.463q.463.462.463 1.152v12.77q0 .69-.462 1.152q-.463.463-1.153.463zm0-1h12.77q.23 0 .423-.192q.192-.193.192-.423V5.615q0-.23-.192-.423Q18.615 5 18.385 5H5.615q-.23 0-.423.192Q5 5.385 5 5.615v12.77q0 .23.192.423q.193.192.423.192M5 5v14z"/></svg>