<?xml version="1.0" standalone="no"?>
<!DOCTYPE svg PUBLIC "-//W3C//DTD SVG 20010904//EN" "http://www.w3.org/TR/2001/REC-SVG-20010904/DTD/svg10.dtd">
<svg version="1.0" xmlns="http://www.w3.org/2000/svg" viewBox="0 0 512.000000 512.000000"
    preserveAspectRatio="xMidYMid meet">

    <g transform="translate(0.000000,512.000000) scale(0.100000,-0.100000)" stroke="none">
        <path fill="currentColor" d="M383 5105 c-182 -49 -320 -189 -368 -372 -23 -86 -23 -4260 0 -4346
48 -185 187 -324 372 -372 86 -23 4260 -23 4346 0 185 48 324 187 372 372 23
86 23 4260 0 4346 -48 185 -187 324 -372 372 -84 22 -4269 21 -4350 0z m4358
-211 c60 -28 125 -93 153 -153 l21 -46 0 -2135 0 -2135 -21 -46 c-28 -60 -93
-125 -153 -153 l-46 -21 -2135 0 -2135 0 -46 21 c-60 28 -125 93 -153 153
l-21 46 -3 2105 c-2 1510 0 2120 8 2157 21 98 96 181 195 215 47 16 180 17
2170 15 l2120 -2 46 -21z" />
        <path fill="currentColor" d="M1325 4681 c-64 -27 -81 -110 -32 -158 l27 -28 1035 -3 1034 -2 33
29 c27 24 33 36 33 71 0 35 -6 47 -33 71 l-32 29 -1023 -1 c-562 0 -1031 -4
-1042 -8z" />
        <path fill="currentColor" d="M3724 4680 c-32 -13 -64 -59 -64 -91 0 -40 46 -88 91 -95 31 -5 42
-1 70 24 28 25 34 37 34 72 0 35 -6 47 -33 71 -33 29 -60 35 -98 19z" />
        <path fill="currentColor" d="M1294 4031 c-67 -49 -422 -415 -429 -441 -3 -14 -4 -575 -3 -1247 l3
-1223 28 -27 27 -28 370 -3 370 -3 0 -164 0 -165 29 -32 29 -33 223 -3 c123
-2 235 0 248 3 14 4 111 91 221 201 l196 194 491 0 490 0 39 29 c70 52 622
615 629 641 3 14 4 530 3 1148 l-3 1124 -33 29 -32 29 -1429 0 -1428 0 -39
-29z m2766 -1198 l0 -1028 -272 -272 -273 -273 -491 0 -491 0 -39 -29 c-21
-16 -115 -106 -209 -200 l-170 -171 -127 0 -127 0 -3 171 -3 171 -33 29 -32
29 -365 0 -365 0 0 1127 0 1128 172 172 173 173 1327 0 1328 0 0 -1027z" />
        <path fill="currentColor" d="M1524 3650 c-12 -4 -31 -21 -43 -36 l-21 -27 0 -928 0 -929 29 -32
29 -33 271 -3 271 -3 0 -160 c0 -175 7 -205 55 -227 67 -31 89 -16 320 217
l170 171 391 0 391 0 39 29 c67 49 422 415 429 441 3 14 4 350 3 748 l-3 724
-33 29 -32 29 -1123 -1 c-617 0 -1132 -4 -1143 -9z m2136 -817 l0 -628 -172
-172 -173 -173 -390 0 c-345 0 -393 -2 -415 -16 -14 -9 -75 -66 -136 -127
l-112 -110 -3 98 c-4 95 -5 97 -37 126 l-32 29 -265 0 -265 0 0 800 0 800
1000 0 1000 0 0 -627z" />
        <path fill="currentColor" d="M2524 3050 c-12 -4 -31 -21 -43 -36 -20 -26 -21 -35 -21 -355 l0
-329 28 -30 c17 -19 40 -33 63 -36 31 -5 42 -1 70 24 l34 30 0 342 0 342 -33
29 c-33 29 -60 35 -98 19z" />
        <path fill="currentColor" d="M3124 3050 c-12 -4 -31 -21 -43 -36 -20 -26 -21 -35 -21 -355 l0
-329 28 -30 c17 -19 40 -33 63 -36 31 -5 42 -1 70 24 l34 30 0 342 0 342 -33
29 c-33 29 -60 35 -98 19z" />
    </g>
</svg>