<svg xmlns="http://www.w3.org/2000/svg" viewBox="0 0 24 24"><path fill="currentColor" d="M6.5 16.5q-.213 0-.357-.144Q6 16.213 6 16V8q0-.213.144-.356q.144-.144.357-.144q.212 0 .356.144Q7 7.788 7 8v3.5h5V8q0-.213.144-.356q.144-.144.357-.144q.212 0 .356.144Q13 7.788 13 8v8q0 .213-.144.356t-.357.144q-.212 0-.356-.144Q12 16.213 12 16v-3.5H7V16q0 .213-.144.356t-.357.144m11 0q-.212 0-.356-.144Q17 16.213 17 16V8.5h-1.5q-.213 0-.356-.144Q15 8.212 15 7.999t.144-.356q.144-.143.356-.143h1.683q.357 0 .587.232q.23.232.23.576V16q0 .213-.144.356q-.144.144-.357.144"/></svg>