<svg xmlns="http://www.w3.org/2000/svg" viewBox="0 0 24 24"><path fill="currentColor" d="M4.5 16.5q-.213 0-.357-.144Q4 16.213 4 16V8q0-.213.144-.356q.144-.144.357-.144q.212 0 .356.144Q5 7.788 5 8v3.5h5V8q0-.213.144-.356q.144-.144.357-.144q.212 0 .356.144Q11 7.788 11 8v8q0 .213-.144.356t-.357.144q-.212 0-.356-.144Q10 16.213 10 16v-3.5H5V16q0 .213-.144.356t-.357.144m9.001 0q-.213 0-.356-.144Q13 16.212 13 16t.144-.356q.144-.143.356-.143h4.885q.269 0 .442-.173t.173-.442v-1.77q0-.269-.173-.442t-.442-.173h-4.577q-.344 0-.576-.23q-.232-.23-.232-.587V8.317q0-.357.232-.587q.232-.23.576-.23H19.5q.213 0 .356.144Q20 7.788 20 8t-.144.356q-.143.143-.356.143H14v3h4.385q.666 0 1.14.475q.475.474.475 1.14v1.77q0 .666-.475 1.14q-.474.475-1.14.475z"/></svg>